<svg xmlns="http://www.w3.org/2000/svg" xmlns:xlink="http://www.w3.org/1999/xlink" width="580" height="100"><g transform="translate(-40 -40)"><path d="M60 60h540v60H60z" fill="none"/><use xlink:href="#a" transform="matrix(1,0,0,1,65,65) translate(55.371419270833314 31.98291015625)"/><use xlink:href="#b" transform="matrix(1,0,0,1,65,65) translate(105.7446831597222 31.98291015625)"/><use xlink:href="#c" transform="matrix(1,0,0,1,65,65) translate(164.39051649305554 31.98291015625)"/><use xlink:href="#d" transform="matrix(1,0,0,1,65,65) translate(197.05240885416666 31.98291015625)"/><use xlink:href="#e" transform="matrix(1,0,0,1,65,65) translate(211.64225260416666 31.98291015625)"/><use xlink:href="#f" transform="matrix(1,0,0,1,65,65) translate(242.39518229166666 31.98291015625)"/><use xlink:href="#g" transform="matrix(1,0,0,1,65,65) translate(345.4733072916667 31.98291015625)"/><use xlink:href="#h" transform="matrix(1,0,0,1,65,65) translate(363.2887369791667 31.98291015625)"/><defs><path fill="#fff" d="M494-94c1 327-146 523-463 524-70 0-131-7-183-22V150c53 13 102 20 146 20 152 0 190-98 190-262v-1370h310V-94" id="i"/><path fill="#fff" d="M1268-424c0 285-235 424-537 424H184v-1462c456 17 1047-96 1047 370 0 167-86 294-225 316v10c175 38 262 140 262 342zm-355-627c0-133-104-157-256-157H494v325h180c151-2 239-31 239-168zM696-256c158 0 250-52 250-199 0-121-87-182-260-182H494v381h202" id="j"/><path fill="#fff" d="M881-995c0-154-85-213-246-213H494v434h102c173 1 285-62 285-221zm-230-467c334-1 543 136 543 456 0 330-225 489-567 486H494V0H184v-1462h467" id="k"/><path fill="#fff" d="M1458 0c3-430-10-709 15-1145h-9L1087 0H803L451-1147h-9c31 483 15 690 19 1147H184v-1462h422L952-344h6l367-1118h422V0h-289" id="l"/><g id="a"><use transform="matrix(0.008680555555555556,0,0,0.008680555555555556,0,0)" xlink:href="#i"/><use transform="matrix(0.008680555555555556,0,0,0.008680555555555556,5.885416666666667,0)" xlink:href="#j"/><use transform="matrix(0.008680555555555556,0,0,0.008680555555555556,17.82986111111111,0)" xlink:href="#k"/><use transform="matrix(0.008680555555555556,0,0,0.008680555555555556,28.993055555555557,0)" xlink:href="#l"/></g><path fill="#fff" d="M643-1462c464-5 754 260 754 717 0 491-297 749-799 745H184v-1462h459zm432 725c0-314-139-471-416-471H494v952h133c299 0 448-160 448-481" id="m"/><path fill="#fff" d="M1026 0H184v-1462h842v254H494v321h495v254H494v377h532V0" id="n"/><path fill="#fff" d="M817-1485c460 0 694 282 694 752 0 468-238 753-696 753-459 0-696-285-696-755 0-471 238-750 698-750zm0 258c-273 0-374 198-373 494 0 296 98 493 371 493 247 0 371-164 371-493s-123-494-369-494" id="o"/><g id="b"><use transform="matrix(0.008680555555555556,0,0,0.008680555555555556,0,0)" xlink:href="#m"/><use transform="matrix(0.008680555555555556,0,0,0.008680555555555556,13.159722222222223,0)" xlink:href="#n"/><use transform="matrix(0.008680555555555556,0,0,0.008680555555555556,23.116319444444446,0)" xlink:href="#l"/><use transform="matrix(0.008680555555555556,0,0,0.008680555555555556,39.87847222222223,0)" xlink:href="#o"/></g><path fill="#fff" d="M1360 0h-352L625-616l-131 94V0H184v-1462h310v669l122-172 396-497h344L846-815" id="p"/><path fill="#fff" d="M184 0v-1462h310V0H184" id="q"/><path fill="#fff" d="M748 0H438v-1204H41v-258h1104v258H748V0" id="r"/><g id="c"><use transform="matrix(0.008680555555555556,0,0,0.008680555555555556,0,0)" xlink:href="#p"/><use transform="matrix(0.008680555555555556,0,0,0.008680555555555556,11.805555555555555,0)" xlink:href="#q"/><use transform="matrix(0.008680555555555556,0,0,0.008680555555555556,17.69097222222222,0)" xlink:href="#r"/></g><path fill="#fff" d="M455-1550h219V465H455v-2015" id="s"/><use transform="matrix(0.0087890625,0,0,0.0087890625,0,0)" xlink:href="#s" id="d"/><path fill="#fff" d="M1257 0h-200L524-709 371-573V0H201v-1462h170v725l663-725h201L647-827" id="t"/><path fill="#fff" d="M201 0v-1462h170V0H201" id="u"/><path fill="#fff" d="M1016 0H201v-1462h815v151H371v471h606v150H371v538h645V0" id="v"/><g id="e"><use transform="matrix(0.0087890625,0,0,0.0087890625,0,0)" xlink:href="#t"/><use transform="matrix(0.0087890625,0,0,0.0087890625,11.0478515625,0)" xlink:href="#u"/><use transform="matrix(0.0087890625,0,0,0.0087890625,16.06640625,0)" xlink:href="#v"/></g><path fill="#fff" d="M125-733c6-459 248-750 704-750 153 0 287 28 402 84l-72 146c-111-52-221-78-332-78-334-1-520 251-520 600 0 361 171 600 518 600 102 0 218-18 349-55v149C1073 1 948 20 799 20c-445 1-680-294-674-753" id="w"/><path fill="#fff" d="M801-1485c433 0 669 306 669 752S1232 20 799 20c-445 0-674-297-674-755 0-456 232-750 676-750zm0 152c-345 0-496 236-496 600 0 367 148 604 494 604 348 0 491-235 491-604 0-366-143-600-489-600" id="x"/><path fill="#fff" d="M1198-240c-25-390-10-810-14-1222h159V0h-194L350-1227h-8c30 405 10 805 16 1227H201v-1462h192l797 1222h8" id="y"/><path fill="#fff" d="M651 0H481v-1311H18v-151h1096v151H651V0" id="z"/><path fill="#fff" d="M1120 0L938-465H352L172 0H0l578-1468h143L1296 0h-176zM885-618c-81-228-168-420-238-664-57 230-159 449-235 664h473" id="A"/><path fill="#fff" d="M602-1462c329 0 526 109 526 413 0 193-98 324-294 392L1231 0h-201L676-608H371V0H201v-1462h401zm350 422c0-215-129-271-360-273H371v559h233c223 0 348-78 348-286" id="B"/><g id="f"><use transform="matrix(0.0087890625,0,0,0.0087890625,0,0)" xlink:href="#w"/><use transform="matrix(0.0087890625,0,0,0.0087890625,10.9951171875,0)" xlink:href="#x"/><use transform="matrix(0.0087890625,0,0,0.0087890625,25.013671875,0)" xlink:href="#y"/><use transform="matrix(0.0087890625,0,0,0.0087890625,38.583984375,0)" xlink:href="#z"/><use transform="matrix(0.0087890625,0,0,0.0087890625,47.28515625,0)" xlink:href="#A"/><use transform="matrix(0.0087890625,0,0,0.0087890625,58.67578125,0)" xlink:href="#u"/><use transform="matrix(0.0087890625,0,0,0.0087890625,63.6943359375,0)" xlink:href="#y"/><use transform="matrix(0.0087890625,0,0,0.0087890625,77.2646484375,0)" xlink:href="#v"/><use transform="matrix(0.0087890625,0,0,0.0087890625,87.275390625,0)" xlink:href="#B"/></g><path fill="#fff" d="M614-1348c-112 0-206 67-200 177 7 140 70 184 159 282 86-50 145-97 179-139s51-91 51-146c1-105-80-174-189-174zM285-383c-2 159 121 254 284 254 161 0 294-51 400-154L532-707c-119 77-173 104-225 208-16 33-22 73-22 116zM565 20c-271 4-452-139-452-399 0-87 23-163 69-230s130-134 250-202c-92-107-127-131-164-246-81-253 95-428 353-428 207 0 350 113 348 316 0 71-23 137-68 197S781-850 676-788l407 391c77-83 114-198 146-328h168c-45 191-114 335-205 434L1491 0h-229l-185-178C936-53 803 16 565 20" id="C"/><use transform="matrix(0.0087890625,0,0,0.0087890625,0,0)" xlink:href="#C" id="g"/><path fill="#fff" d="M1477 0h-168c-114-383-232-756-342-1143-19-66-26-106-27-119-15 88-39 184-70 289L584 0H416L27-1462h180l231 903c32 127 55 241 70 344 18-122 46-241 80-358l262-889h180l275 897c32 103 59 220 81 350 13-95 37-210 72-346l230-901h180" id="D"/><path fill="#fff" d="M371 0H201v-1462h815v151H371v535h606v151H371V0" id="E"/><path fill="#fff" d="M201 0v-1462h170v1308h645V0H201" id="F"/><path fill="#fff" d="M584-1331c-162 0-287 69-287 219 0 118 43 164 123 214 44 28 112 56 203 89 153 55 259 113 317 176s86 144 86 244c-1 276-228 409-520 409-173 0-307-22-400-67v-164c109 46 257 81 406 82 199 1 342-68 342-244 0-120-47-164-132-214-47-28-121-58-218-93-136-49-234-106-292-173s-87-154-87-261c-1-239 209-369 463-369 145 0 279 27 401 80l-53 148c-121-51-238-76-352-76" id="G"/><g id="h"><use transform="matrix(0.0087890625,0,0,0.0087890625,0,0)" xlink:href="#D"/><use transform="matrix(0.0087890625,0,0,0.0087890625,16.48828125,0)" xlink:href="#x"/><use transform="matrix(0.0087890625,0,0,0.0087890625,30.5068359375,0)" xlink:href="#B"/><use transform="matrix(0.0087890625,0,0,0.0087890625,41.6337890625,0)" xlink:href="#t"/><use transform="matrix(0.0087890625,0,0,0.0087890625,52.681640625,0)" xlink:href="#E"/><use transform="matrix(0.0087890625,0,0,0.0087890625,61.9716796875,0)" xlink:href="#F"/><use transform="matrix(0.0087890625,0,0,0.0087890625,70.9541015625,0)" xlink:href="#x"/><use transform="matrix(0.0087890625,0,0,0.0087890625,84.796875,0)" xlink:href="#D"/><use transform="matrix(0.0087890625,0,0,0.0087890625,101.4609375,0)" xlink:href="#G"/></g></defs></g></svg>