<svg xmlns="http://www.w3.org/2000/svg" xmlns:xlink="http://www.w3.org/1999/xlink" width="980" height="559"><g transform="translate(-226 -289)"><path d="M240 645c0-2.76 2.24-5 5-5h950c2.76 0 5 2.24 5 5v75.33c0 2.76-2.24 5-5 5H245c-2.76 0-5-2.24-5-5z" stroke="#666" stroke-width="2" fill="none" filter="url(#a)"/><path d="M240 665c0-2.76 2.24-5 5-5h950c2.76 0 5 2.24 5 5v50c0 2.76-2.24 5-5 5H245c-2.76 0-5-2.24-5-5z" fill="none"/><use xlink:href="#b" transform="matrix(1,0,0,1,240,660) translate(371.625 33.6)"/><use xlink:href="#c" transform="matrix(1,0,0,1,240,660) translate(406.575 33.6)"/><use xlink:href="#d" transform="matrix(1,0,0,1,240,660) translate(497.375 33.6)"/><path d="M240 559.67c0-2.76 2.24-5 5-5h310c2.76 0 5 2.24 5 5V635c0 2.76-2.24 5-5 5H245c-2.76 0-5-2.24-5-5zM880 559.33c0-2.76 2.24-5 5-5h310c2.76 0 5 2.24 5 5v75.34c0 2.76-2.24 5-5 5H885c-2.76 0-5-2.24-5-5z" stroke="#666" stroke-width="2" fill="none" filter="url(#e)"/><path d="M240 579c0-2.76 2.24-5 5-5h310c2.76 0 5 2.24 5 5v50c0 2.76-2.24 5-5 5H245c-2.76 0-5-2.24-5-5z" fill="none"/><use xlink:href="#f" transform="matrix(1,0,0,1,240,574) translate(136.05 33.6)"/><path d="M880 579c0-2.76 2.24-5 5-5h310c2.76 0 5 2.24 5 5v50c0 2.76-2.24 5-5 5H885c-2.76 0-5-2.24-5-5z" fill="none"/><use xlink:href="#g" transform="matrix(1,0,0,1,880,574) translate(141.525 33.6)"/><path d="M240 730c0-2.76 2.24-5 5-5h950c2.76 0 5 2.24 5 5v50c0 2.76-2.24 5-5 5H245c-2.76 0-5-2.24-5-5z" stroke="#666" stroke-width="2" fill="red" opacity=".42" filter="url(#h)"/><path d="M240 305c0-2.76 2.24-5 5-5h950c2.76 0 5 2.24 5 5v245c0 2.76-2.24 5-5 5H245c-2.76 0-5-2.24-5-5z" stroke="#666" stroke-width="2" fill="none" filter="url(#i)"/><path d="M560 560c0-2.76 2.24-5 5-5h310c2.76 0 5 2.24 5 5v75.33c0 2.76-2.24 5-5 5H565c-2.76 0-5-2.24-5-5z" stroke="#666" stroke-width="2" fill="none" filter="url(#e)"/><path d="M560 579.33c0-2.76 2.24-5 5-5h310c2.76 0 5 2.24 5 5v50c0 2.76-2.24 5-5 5H565c-2.76 0-5-2.24-5-5z" fill="none"/><use xlink:href="#j" transform="matrix(1,0,0,1,560,574.3333333333334) translate(46.92499999999998 33.6)"/><use xlink:href="#k" transform="matrix(1,0,0,1,560,574.3333333333334) translate(128.77499999999998 33.6)"/><use xlink:href="#l" transform="matrix(1,0,0,1,560,574.3333333333334) translate(178.325 33.6)"/><use xlink:href="#m" transform="matrix(1,0,0,1,560,574.3333333333334) translate(213.275 33.6)"/><path d="M538.67 332.35c0-2.76 2.24-5 5-5H715c2.76 0 5 2.24 5 5v189.5c0 2.77-2.24 5-5 5H543.67c-2.76 0-5-2.23-5-5z" stroke="#666" stroke-width="2" fill="#fff" filter="url(#n)"/><path d="M580 333.02c0-2.76 2.24-5 5-5h171.33c2.76 0 5 2.24 5 5v189.5c0 2.76-2.24 5-5 5H585c-2.76 0-5-2.24-5-5z" stroke="#666" stroke-width="2" fill="#fff" filter="url(#n)"/><path d="M620 332.2c0-2.77 2.24-5 5-5h171.33c2.76 0 5 2.23 5 5v189.5c0 2.75-2.24 5-5 5H625c-2.76 0-5-2.25-5-5z" stroke="#666" stroke-width="2" fill="#fff" filter="url(#n)"/><path d="M660 332.2c0-2.77 2.24-5 5-5h171.33c2.76 0 5 2.23 5 5v189.5c0 2.75-2.24 5-5 5H665c-2.76 0-5-2.25-5-5z" stroke="#666" stroke-width="2" fill="#fff" filter="url(#n)"/><path d="M660 332.2c0-2.77 2.24-5 5-5h171c2.76 0 5 2.23 5 5v135c0 2.75-2.24 5-5 5H665c-2.76 0-5-2.25-5-5z" fill="none"/><use xlink:href="#b" transform="matrix(1,0,0,1,660,327.1875) translate(31.15 43.69999999999999)"/><use xlink:href="#o" transform="matrix(1,0,0,1,660,327.1875) translate(66.1 43.69999999999999)"/><use xlink:href="#p" transform="matrix(1,0,0,1,660,327.1875) translate(14.85 65.3)"/><use xlink:href="#q" transform="matrix(1,0,0,1,660,327.1875) translate(36 65.3)"/><use xlink:href="#p" transform="matrix(1,0,0,1,660,327.1875) translate(14.85 86.9)"/><use xlink:href="#r" transform="matrix(1,0,0,1,660,327.1875) translate(36 86.9)"/><use xlink:href="#p" transform="matrix(1,0,0,1,660,327.1875) translate(14.85 108.5)"/><use xlink:href="#s" transform="matrix(1,0,0,1,660,327.1875) translate(36 108.5)"/><path d="M240 730c0-2.76 2.24-5 5-5h950c2.76 0 5 2.24 5 5v50c0 2.76-2.24 5-5 5H245c-2.76 0-5-2.24-5-5z" fill="none"/><use xlink:href="#t" transform="matrix(1,0,0,1,240,725) translate(400.65 33.6)"/><use xlink:href="#u" transform="matrix(1,0,0,1,240,725) translate(503.34999999999997 33.6)"/><path d="M240 790c0-2.76 2.24-5 5-5h950c2.76 0 5 2.24 5 5v50c0 2.76-2.24 5-5 5H245c-2.76 0-5-2.24-5-5z" fill="none"/><g><use xlink:href="#v" transform="matrix(1,0,0,1,240,785) translate(461.525 33.6)"/></g><g filter="url(#h)"><path d="M240 790c0-2.76 2.24-5 5-5h950c2.76 0 5 2.24 5 5v50c0 2.76-2.24 5-5 5H245c-2.76 0-5-2.24-5-5z" stroke="#666" stroke-width="2" fill="red" opacity=".42"/></g><path d="M660 498.56c0-2.76 2.24-5 5-5h30c2.76 0 5 2.24 5 5v25.25c0 2.77-2.24 5-5 5h-30c-2.76 0-5-2.23-5-5z" fill="none"/><g><use xlink:href="#w" transform="matrix(1,0,0,1,660,493.5625) translate(12.5 21.6)"/><use xlink:href="#x" transform="matrix(1,0,0,1,660,493.5625) translate(17.5 21.6)"/></g><path d="M620 497.56c0-2.76 2.24-5 5-5h30c2.76 0 5 2.24 5 5v25.25c0 2.77-2.24 5-5 5h-30c-2.76 0-5-2.23-5-5z" fill="none"/><g><use xlink:href="#y" transform="matrix(1,0,0,1,620,492.5625) translate(15 21.6)"/></g><path d="M580 497.94c0-2.76 2.24-5 5-5h30c2.76 0 5 2.24 5 5v25.25c0 2.75-2.24 5-5 5h-30c-2.76 0-5-2.25-5-5z" fill="none"/><g><use xlink:href="#z" transform="matrix(1,0,0,1,580,492.9375) translate(15 21.6)"/></g><path d="M540 498.2c0-2.77 2.24-5 5-5h30c2.76 0 5 2.23 5 5v25.24c0 2.76-2.24 5-5 5h-30c-2.76 0-5-2.24-5-5z" fill="none"/><g><use xlink:href="#A" transform="matrix(1,0,0,1,540,493.1875) translate(13.524999999999999 21.6)"/></g><defs><filter id="a" filterUnits="objectBoundingBox" x="-.01" y="-.05" width="1.02" height="1.23"><feOffset result="offOut" in="SourceAlpha" dy="6"/><feGaussianBlur result="blurOut" in="offOut" stdDeviation="5"/><feColorMatrix result="colorOut" in="blurOut" values="0 0 0 0 0 0 0 0 0 0 0 0 0 0 0 0 0 0 0.5019607843137255 0"/><feBlend in="SourceGraphic" in2="colorOut"/></filter><path fill="#333" d="M195 0l-88-114-31 24V0H24v-248h52v113l112-113h60L142-143 257 0h-62" id="B"/><path fill="#333" d="M24 0v-248h52V0H24" id="C"/><path fill="#333" d="M24 0v-248h195v40H76v63h132v40H76v65h150V0H24" id="D"/><g id="b"><use transform="matrix(0.05,0,0,0.05,0,0)" xlink:href="#B"/><use transform="matrix(0.05,0,0,0.05,12.950000000000001,0)" xlink:href="#C"/><use transform="matrix(0.05,0,0,0.05,17.950000000000003,0)" xlink:href="#D"/></g><path fill="#333" d="M144 0l-44-69L55 0H2l70-98-66-92h53l41 62 40-62h54l-67 91 71 99h-54" id="E"/><path fill="#333" d="M185-48c-13 30-37 53-82 52C43 2 14-33 14-96s30-98 90-98c62 0 83 45 84 108H66c0 31 8 55 39 56 18 0 30-7 34-22zm-45-69c5-46-57-63-70-21-2 6-4 13-4 21h74" id="F"/><path fill="#333" d="M190-63c-7 42-38 67-86 67-59 0-84-38-90-98-12-110 154-137 174-36l-49 2c-2-19-15-32-35-32-30 0-35 28-38 64-6 74 65 87 74 30" id="G"/><path fill="#333" d="M85 4C-2 5 27-109 22-190h50c7 57-23 150 33 157 60-5 35-97 40-157h50l1 190h-47c-2-12 1-28-3-38-12 25-28 42-61 42" id="H"/><path fill="#333" d="M115-3C79 11 28 4 28-45v-112H4v-33h27l15-45h31v45h36v33H77v99c-1 23 16 31 38 25v30" id="I"/><path fill="#333" d="M25-224v-37h50v37H25zM25 0v-190h50V0H25" id="J"/><path fill="#333" d="M110-194c64 0 96 36 96 99 0 64-35 99-97 99-61 0-95-36-95-99 0-62 34-99 96-99zm-1 164c35 0 45-28 45-65 0-40-10-65-43-65-34 0-45 26-45 65 0 36 10 65 43 65" id="K"/><path fill="#333" d="M135-194c87-1 58 113 63 194h-50c-7-57 23-157-34-157-59 0-34 97-39 157H25l-1-190h47c2 12-1 28 3 38 12-26 28-41 61-42" id="L"/><g id="c"><use transform="matrix(0.05,0,0,0.05,0,0)" xlink:href="#D"/><use transform="matrix(0.05,0,0,0.05,12,0)" xlink:href="#E"/><use transform="matrix(0.05,0,0,0.05,22,0)" xlink:href="#F"/><use transform="matrix(0.05,0,0,0.05,32,0)" xlink:href="#G"/><use transform="matrix(0.05,0,0,0.05,42,0)" xlink:href="#H"/><use transform="matrix(0.05,0,0,0.05,52.95,0)" xlink:href="#I"/><use transform="matrix(0.05,0,0,0.05,58.900000000000006,0)" xlink:href="#J"/><use transform="matrix(0.05,0,0,0.05,63.900000000000006,0)" xlink:href="#K"/><use transform="matrix(0.05,0,0,0.05,74.85000000000001,0)" xlink:href="#L"/></g><path fill="#333" d="M169-182c-1-43-94-46-97-3 18 66 151 10 154 114 3 95-165 93-204 36-6-8-10-19-12-30l50-8c3 46 112 56 116 5-17-69-150-10-154-114-4-87 153-88 188-35 5 8 8 18 10 28" id="M"/><path fill="#333" d="M135-150c-39-12-60 13-60 57V0H25l-1-190h47c2 13-1 29 3 40 6-28 27-53 61-41v41" id="N"/><path fill="#333" d="M128 0H69L1-190h53L99-40l48-150h52" id="O"/><path fill="#333" d="M24 0v-54h51V0H24" id="P"/><path fill="#333" d="M231 0h-52l-39-155L100 0H48L-1-190h46L77-45c9-52 24-97 36-145h53l37 145 32-145h46" id="Q"/><path fill="#333" d="M133-34C117-15 103 5 69 4 32 3 11-16 11-54c-1-60 55-63 116-61 1-26-3-47-28-47-18 1-26 9-28 27l-52-2c7-38 36-58 82-57s74 22 75 68l1 82c-1 14 12 18 25 15v27c-30 8-71 5-69-32zm-48 3c29 0 43-24 42-57-32 0-66-3-65 30 0 17 8 27 23 27" id="R"/><g id="d"><use transform="matrix(0.05,0,0,0.05,0,0)" xlink:href="#M"/><use transform="matrix(0.05,0,0,0.05,12,0)" xlink:href="#F"/><use transform="matrix(0.05,0,0,0.05,22,0)" xlink:href="#N"/><use transform="matrix(0.05,0,0,0.05,29,0)" xlink:href="#O"/><use transform="matrix(0.05,0,0,0.05,39,0)" xlink:href="#F"/><use transform="matrix(0.05,0,0,0.05,49,0)" xlink:href="#N"/><use transform="matrix(0.05,0,0,0.05,55,0)" xlink:href="#P"/><use transform="matrix(0.05,0,0,0.05,60,0)" xlink:href="#Q"/><use transform="matrix(0.05,0,0,0.05,74,0)" xlink:href="#R"/><use transform="matrix(0.05,0,0,0.05,84,0)" xlink:href="#N"/></g><filter id="e" filterUnits="objectBoundingBox" x="-.03" y="-.05" width="1.06" height="1.23"><feOffset result="offOut" in="SourceAlpha" dy="6"/><feGaussianBlur result="blurOut" in="offOut" stdDeviation="5"/><feColorMatrix result="colorOut" in="blurOut" values="0 0 0 0 0 0 0 0 0 0 0 0 0 0 0 0 0 0 0.5019607843137255 0"/><feBlend in="SourceGraphic" in2="colorOut"/></filter><path fill="#333" d="M240-174c0 40-23 61-54 70L253 0h-59l-57-94H76V0H24v-248c93 4 217-23 216 74zM76-134c48-2 112 12 112-38 0-48-66-32-112-35v73" id="S"/><path fill="#333" d="M136-208V0H84v-208H4v-40h212v40h-80" id="T"/><g id="f"><use transform="matrix(0.05,0,0,0.05,0,0)" xlink:href="#S"/><use transform="matrix(0.05,0,0,0.05,12.950000000000001,0)" xlink:href="#D"/><use transform="matrix(0.05,0,0,0.05,24.950000000000003,0)" xlink:href="#M"/><use transform="matrix(0.05,0,0,0.05,36.95,0)" xlink:href="#T"/></g><path fill="#333" d="M176-78C186 10 51 31 16-35c-5-9-9-19-11-32l52-8c4 21 12 37 35 38 23 0 32-16 32-40v-130H75v-41h101v170" id="U"/><path fill="#333" d="M230 0l2-204L168 0h-37L68-204 70 0H24v-248h70l56 185 57-185h69V0h-46" id="V"/><g id="g"><use transform="matrix(0.05,0,0,0.05,0,0)" xlink:href="#U"/><use transform="matrix(0.05,0,0,0.05,10,0)" xlink:href="#V"/><use transform="matrix(0.05,0,0,0.05,24.950000000000003,0)" xlink:href="#M"/></g><filter id="h" filterUnits="objectBoundingBox" x="-.01" y="-.07" width="1.02" height="1.33"><feOffset result="offOut" in="SourceAlpha" dy="6"/><feGaussianBlur result="blurOut" in="offOut" stdDeviation="5"/><feColorMatrix result="colorOut" in="blurOut" values="0 0 0 0 0 0 0 0 0 0 0 0 0 0 0 0 0 0 0.5019607843137255 0"/><feBlend in="SourceGraphic" in2="colorOut"/></filter><filter id="i" filterUnits="objectBoundingBox" x="-.01" y="-.02" width="1.02" height="1.08"><feOffset result="offOut" in="SourceAlpha" dy="6"/><feGaussianBlur result="blurOut" in="offOut" stdDeviation="5"/><feColorMatrix result="colorOut" in="blurOut" values="0 0 0 0 0 0 0 0 0 0 0 0 0 0 0 0 0 0 0.5019607843137255 0"/><feBlend in="SourceGraphic" in2="colorOut"/></filter><path fill="#333" d="M140-251c80 0 125 45 125 126S219 4 139 4C58 4 15-44 15-125s44-126 125-126zm-1 214c52 0 73-35 73-88 0-50-21-86-72-86-52 0-73 35-73 86s22 88 72 88" id="W"/><g id="j"><use transform="matrix(0.05,0,0,0.05,0,0)" xlink:href="#S"/><use transform="matrix(0.05,0,0,0.05,12.950000000000001,0)" xlink:href="#D"/><use transform="matrix(0.05,0,0,0.05,24.950000000000003,0)" xlink:href="#V"/><use transform="matrix(0.05,0,0,0.05,39.900000000000006,0)" xlink:href="#W"/><use transform="matrix(0.05,0,0,0.05,53.900000000000006,0)" xlink:href="#T"/><use transform="matrix(0.05,0,0,0.05,64.85000000000001,0)" xlink:href="#D"/></g><path fill="#333" d="M199 0l-22-63H83L61 0H9l90-248h61L250 0h-51zm-33-102l-36-108c-10 38-24 72-36 108h72" id="X"/><path fill="#333" d="M147 0H94L2-248h55l64 206c17-72 42-137 63-206h54" id="Y"/><g id="k"><use transform="matrix(0.05,0,0,0.05,0,0)" xlink:href="#U"/><use transform="matrix(0.05,0,0,0.05,10,0)" xlink:href="#X"/><use transform="matrix(0.05,0,0,0.05,21.6,0)" xlink:href="#Y"/><use transform="matrix(0.05,0,0,0.05,32.25,0)" xlink:href="#X"/></g><path fill="#333" d="M24-248c93 1 206-16 204 79-1 75-69 88-152 82V0H24v-248zm52 121c47 0 100 7 100-41 0-47-54-39-100-39v80" id="Z"/><g id="l"><use transform="matrix(0.05,0,0,0.05,0,0)" xlink:href="#X"/><use transform="matrix(0.05,0,0,0.05,12.950000000000001,0)" xlink:href="#Z"/><use transform="matrix(0.05,0,0,0.05,24.950000000000003,0)" xlink:href="#C"/></g><path fill="#333" d="M67-93c0 74 22 123 53 168H70C40 30 18-18 18-93s22-123 52-168h50c-32 44-53 94-53 168" id="aa"/><path fill="#333" d="M102-93c0 74-22 123-52 168H0C30 29 54-18 53-93c0-74-22-123-53-168h50c30 45 52 94 52 168" id="ab"/><g id="m"><use transform="matrix(0.05,0,0,0.05,0,0)" xlink:href="#aa"/><use transform="matrix(0.05,0,0,0.05,5.95,0)" xlink:href="#S"/><use transform="matrix(0.05,0,0,0.05,18.900000000000002,0)" xlink:href="#D"/><use transform="matrix(0.05,0,0,0.05,30.900000000000002,0)" xlink:href="#M"/><use transform="matrix(0.05,0,0,0.05,42.900000000000006,0)" xlink:href="#T"/><use transform="matrix(0.05,0,0,0.05,53.85,0)" xlink:href="#ab"/></g><filter id="n" filterUnits="objectBoundingBox" x="-.06" y="-.02" width="1.11" height="1.1"><feOffset result="offOut" in="SourceAlpha" dy="6"/><feGaussianBlur result="blurOut" in="offOut" stdDeviation="5"/><feColorMatrix result="colorOut" in="blurOut" values="0 0 0 0 0 0 0 0 0 0 0 0 0 0 0 0 0 0 0.5019607843137255 0"/><feBlend in="SourceGraphic" in2="colorOut"/></filter><path fill="#333" d="M67-125c0 53 21 87 73 88 37 1 54-22 65-47l45 17C233-25 199 4 140 4 58 4 20-42 15-125 8-235 124-281 211-232c18 10 29 29 36 50l-46 12c-8-25-30-41-62-41-52 0-71 34-72 86" id="ac"/><g id="o"><use transform="matrix(0.05,0,0,0.05,0,0)" xlink:href="#ac"/><use transform="matrix(0.05,0,0,0.05,12.950000000000001,0)" xlink:href="#K"/><use transform="matrix(0.05,0,0,0.05,23.900000000000002,0)" xlink:href="#L"/><use transform="matrix(0.05,0,0,0.05,34.85,0)" xlink:href="#I"/><use transform="matrix(0.05,0,0,0.05,40.800000000000004,0)" xlink:href="#R"/><use transform="matrix(0.05,0,0,0.05,50.800000000000004,0)" xlink:href="#J"/><use transform="matrix(0.05,0,0,0.05,55.800000000000004,0)" xlink:href="#L"/><use transform="matrix(0.05,0,0,0.05,66.75,0)" xlink:href="#F"/><use transform="matrix(0.05,0,0,0.05,76.75,0)" xlink:href="#N"/></g><path fill="#333" d="M63-170c30 0 51 21 51 51 0 31-20 52-51 52s-52-21-52-52 21-51 52-51" id="ad"/><use transform="matrix(0.05,0,0,0.05,0,0)" xlink:href="#ad" id="p"/><path fill="#333" d="M195-6C206 82 75 100 31 46c-4-6-6-13-8-21l49-6c3 16 16 24 34 25 40 0 42-37 40-79-11 22-30 35-61 35-53 0-70-43-70-97 0-56 18-96 73-97 30 0 46 14 59 34l2-30h47zm-90-29c32 0 41-27 41-63 0-35-9-62-40-62-32 0-39 29-40 63 0 36 9 62 39 62" id="ae"/><path fill="#333" d="M135-194c53 0 70 44 70 98 0 56-19 98-73 100-31 1-45-17-59-34 3 33 2 69 2 105H25l-1-265h48c2 10 0 23 3 31 11-24 29-35 60-35zM114-30c33 0 39-31 40-66 0-38-9-64-40-64-56 0-55 130 0 130" id="af"/><path fill="#333" d="M14-72v-43h91v43H14" id="ag"/><path fill="#333" d="M88-194c31-1 46 15 58 34l-1-101h50l1 261h-48c-2-10 0-23-3-31C134-8 116 4 84 4 32 4 16-41 15-95c0-56 19-97 73-99zm17 164c33 0 40-30 41-66 1-37-9-64-41-64s-38 30-39 65c0 43 13 65 39 65" id="ah"/><path fill="#333" d="M76-54c-1 42 2 86-19 110H24C36 42 46 24 48 0H25v-54h51" id="ai"/><g id="q"><use transform="matrix(0.05,0,0,0.05,0,0)" xlink:href="#ae"/><use transform="matrix(0.05,0,0,0.05,10.950000000000001,0)" xlink:href="#N"/><use transform="matrix(0.05,0,0,0.05,17.950000000000003,0)" xlink:href="#K"/><use transform="matrix(0.05,0,0,0.05,28.900000000000006,0)" xlink:href="#H"/><use transform="matrix(0.05,0,0,0.05,39.85000000000001,0)" xlink:href="#af"/><use transform="matrix(0.05,0,0,0.05,50.80000000000001,0)" xlink:href="#ag"/><use transform="matrix(0.05,0,0,0.05,56.750000000000014,0)" xlink:href="#J"/><use transform="matrix(0.05,0,0,0.05,61.750000000000014,0)" xlink:href="#ah"/><use transform="matrix(0.05,0,0,0.05,72.70000000000002,0)" xlink:href="#ai"/></g><path fill="#333" d="M121-226c-27-7-43 5-38 36h38v33H83V0H34v-157H6v-33h28c-9-59 32-81 87-68v32" id="aj"/><g id="r"><use transform="matrix(0.05,0,0,0.05,0,0)" xlink:href="#R"/><use transform="matrix(0.05,0,0,0.05,10,0)" xlink:href="#N"/><use transform="matrix(0.05,0,0,0.05,17,0)" xlink:href="#I"/><use transform="matrix(0.05,0,0,0.05,22.95,0)" xlink:href="#J"/><use transform="matrix(0.05,0,0,0.05,27.950000000000003,0)" xlink:href="#aj"/><use transform="matrix(0.05,0,0,0.05,33.9,0)" xlink:href="#R"/><use transform="matrix(0.05,0,0,0.05,43.9,0)" xlink:href="#G"/><use transform="matrix(0.05,0,0,0.05,53.900000000000006,0)" xlink:href="#I"/><use transform="matrix(0.05,0,0,0.05,59.85,0)" xlink:href="#ag"/><use transform="matrix(0.05,0,0,0.05,65.8,0)" xlink:href="#J"/><use transform="matrix(0.05,0,0,0.05,70.8,0)" xlink:href="#ah"/><use transform="matrix(0.05,0,0,0.05,81.75,0)" xlink:href="#ai"/></g><path fill="#333" d="M137-138c1-29-70-34-71-4 15 46 118 7 119 86 1 83-164 76-172 9l43-7c4 19 20 25 44 25 33 8 57-30 24-41C81-84 22-81 20-136c-2-80 154-74 161-7" id="ak"/><g id="s"><use transform="matrix(0.05,0,0,0.05,0,0)" xlink:href="#O"/><use transform="matrix(0.05,0,0,0.05,10,0)" xlink:href="#F"/><use transform="matrix(0.05,0,0,0.05,20,0)" xlink:href="#N"/><use transform="matrix(0.05,0,0,0.05,27,0)" xlink:href="#ak"/><use transform="matrix(0.05,0,0,0.05,37,0)" xlink:href="#J"/><use transform="matrix(0.05,0,0,0.05,42,0)" xlink:href="#K"/><use transform="matrix(0.05,0,0,0.05,52.95,0)" xlink:href="#L"/></g><path fill="#333" d="M25 0v-261h50V0H25" id="al"/><g id="t"><use transform="matrix(0.05,0,0,0.05,0,0)" xlink:href="#X"/><use transform="matrix(0.05,0,0,0.05,12.950000000000001,0)" xlink:href="#af"/><use transform="matrix(0.05,0,0,0.05,23.900000000000002,0)" xlink:href="#af"/><use transform="matrix(0.05,0,0,0.05,34.85,0)" xlink:href="#al"/><use transform="matrix(0.05,0,0,0.05,39.85,0)" xlink:href="#J"/><use transform="matrix(0.05,0,0,0.05,44.85,0)" xlink:href="#G"/><use transform="matrix(0.05,0,0,0.05,54.85,0)" xlink:href="#R"/><use transform="matrix(0.05,0,0,0.05,64.85,0)" xlink:href="#I"/><use transform="matrix(0.05,0,0,0.05,70.8,0)" xlink:href="#J"/><use transform="matrix(0.05,0,0,0.05,75.8,0)" xlink:href="#K"/><use transform="matrix(0.05,0,0,0.05,86.75,0)" xlink:href="#L"/></g><g id="u"><use transform="matrix(0.05,0,0,0.05,0,0)" xlink:href="#M"/><use transform="matrix(0.05,0,0,0.05,12,0)" xlink:href="#F"/><use transform="matrix(0.05,0,0,0.05,22,0)" xlink:href="#N"/><use transform="matrix(0.05,0,0,0.05,29,0)" xlink:href="#O"/><use transform="matrix(0.05,0,0,0.05,39,0)" xlink:href="#F"/><use transform="matrix(0.05,0,0,0.05,49,0)" xlink:href="#N"/></g><g id="v"><use transform="matrix(0.05,0,0,0.05,0,0)" xlink:href="#U"/><use transform="matrix(0.05,0,0,0.05,10,0)" xlink:href="#Y"/><use transform="matrix(0.05,0,0,0.05,22,0)" xlink:href="#V"/></g><path fill="#333" d="M23 0v-37h61v-169l-59 37v-38l62-41h46v211h57V0H23" id="am"/><use transform="matrix(0.05,0,0,0.05,0,0)" xlink:href="#am" id="x"/><path fill="#333" d="M182-182c0 78-84 86-111 141h115V0H12c-6-101 99-100 120-180 1-22-12-31-33-32-23 0-32 14-35 34l-49-3c5-45 32-70 84-70 51 0 83 22 83 69" id="an"/><use transform="matrix(0.05,0,0,0.05,0,0)" xlink:href="#an" id="y"/><path fill="#333" d="M128-127c34 4 56 21 59 58 7 91-148 94-172 28-4-9-6-17-7-26l51-5c1 24 16 35 40 36 23 0 39-12 38-36-1-31-31-36-65-34v-40c32 2 59-3 59-33 0-20-13-33-34-33s-33 13-35 32l-50-3c6-44 37-68 86-68 50 0 83 20 83 66 0 35-22 52-53 58" id="ao"/><use transform="matrix(0.05,0,0,0.05,0,0)" xlink:href="#ao" id="z"/><path fill="#333" d="M175 0L67-191c6 58 2 128 3 191H24v-248h59L193-55c-6-58-2-129-3-193h46V0h-61" id="ap"/><use transform="matrix(0.05,0,0,0.05,0,0)" xlink:href="#ap" id="A"/></defs></g></svg>